<?xml version="1.0" encoding="utf-8"?>
<!-- Generator: Adobe Illustrator 23.0.1, SVG Export Plug-In . SVG Version: 6.00 Build 0)  -->
<svg version="1.1" id="图层_1" xmlns="http://www.w3.org/2000/svg" xmlns:xlink="http://www.w3.org/1999/xlink" x="0px" y="0px"
	 viewBox="0 0 600 600" style="enable-background:new 0 0 600 600;" xml:space="preserve">
<style type="text/css">
	.st0{fill:#FFEFBC;}
	.st1{fill:#FFE089;}
	.st2{fill:#511E1E;}
</style>
<g>
	<path class="st0" d="M482.5,296.5c0-0.1,0-0.2-0.1-0.3c-0.6-2.2-1.7-4.8-1.9-7.1c-1-1.4-1.8-3-2.6-4.5c-0.5-0.6-1.3-1.5-2.1-2.3
		c-0.2-0.2-1.6-1.4-2.5-2.3c-1.4-0.9-4.8-3.3-5.2-3.5c-3.5-2.2-6.5-4.9-9-7.8c-0.8-0.2-1.5-0.4-2.3-0.6c-0.6-0.2-1.1-0.4-1.7-0.6
		c0.6,1.7,1.2,3.5,1.9,5.2c-2.6-1-5.2-1-7.5-0.4c-1.4-1.4-2.9-2.8-4.5-4.1c-12.1-9.9-26.7-15.6-42.4-16.4
		c-6.9-0.4-14.1,0.4-20.8,2.2c3.7-3.9,6.3-8.9,7.1-14.7c1.8-13.2,2.5-28.4-9.7-32.8c-4.8-6.2-20.2-8-26.6-12.5c-1.5-1-3-2-4.5-2.8
		c-7.9-0.9-15.9-0.6-23.8,0.1c-2.8,0.2-4.5-1.3-5.1-3.2c-0.7,0.3-1.3,0.6-2,0.9c-6.2-1.6-11.5,4.3-17.4,4.1
		c-3.1-0.1-6.2-0.3-9.1-0.3c-0.4,0.8-1.1,1.5-2.1,2.1c-7.5,4.3-15.7,6.9-23.6,10.4c-1.6,0.7-3.2,0.7-4.6,0.1
		c-2.4,1.3-4.8,2.7-7.1,4.2c-3.3,1.8-6.4,4.1-9.1,6.8c-2.5,2.1-4.8,4.2-7.1,6.6c-3.2,3.3-4.2,7.2-3.5,10.8c-1,3.6-4.2,12.8-4.1,16.7
		c0.1,2.4,0.7,4.4,1.7,6.1c-13.5-1.4-29.3-3.1-42,2.2c-1.6,0.7-10,4.6-11.3,5.6c-8.1,2.5-11,5.1-18.1,9.9
		c-11.6,8-22.9,19.3-32.8,29.3c-1.2,0.7-2.3,1.5-3.5,2.4c-4.2,3.2-1.6,7.6-4.8,11.3c-9.2,10.8-13.8,37.7,0.8,29.6
		c6.3-3.5,19-10.4,23.9-15.3c2.4,5.7,16.2-0.6,21.9-0.9c23.8-0.9,49.2,15.2,73.3,24.5c18.7,7.2,43,6.1,61-3.7
		c-3.6,6.5-9.9,11.6,7.4,19.1c17.4,7.5,33.4,15.8,52.1,19.2c9.3,1.7,21.9-1.3,31.3-1c5.4,0.2,10.6-0.7,15.5-2.9
		c3.6-1.7,6.7-4.5,10.2-6.1c3.4-1.6,7.7-1.7,11.4-2.5c3.9-0.8,7.8-2.2,11.1-4.4c7.4-4.7,12-12.5,11.5-21.3c0-0.2,0-0.4-0.1-0.6
		c2.5,0.3,5-0.2,7.1-1.8c0.9-0.7,1.7-1.4,2.5-2.1c0,0,0.1,0.1,0.1,0.1c13-10.7,18.1-28.3,15.5-44.5c0.2,0.2,0.4,0.4,0.5,0.5
		c1.4,2.8,3.9,4.8,7.2,5.2c-0.1-0.8-0.1-1.6-0.2-2.3C482.8,302.6,482.6,299.5,482.5,296.5z M250.9,261.4c0.6-0.1,1.2,0,1.6,0.5
		C252,261.7,251.4,261.6,250.9,261.4z"/>
	<path class="st1" d="M314.4,379.4c5.9,2.3,12.3,4.2,18.7,5.8c-9.3-3.9-18.3-8.4-27.8-12.2c-1.2-0.5-2.5-0.9-3.7-1.4
		c0.6,0.3,1.2,0.7,1.7,1c2.4,1.5,4.7,3.1,7.1,4.6C311.2,377.9,314.5,379.4,314.4,379.4z"/>
	<path class="st1" d="M228.1,352.1c3.7,0.6,7.5,1,11.2,1.2c5.1,1.9,10.2,3.6,15.4,5c-4.2-0.4-8.5-0.5-12.9-0.1
		c-4.3-4.7-11.3-5.2-16.7-2.7c2.3,0.9,4.6,2,6.8,3.3c0.5,0.1,1,0.3,1.7,0.5c2.2,0.2,4.5,0.3,6.7,0.5c8.8,0.9,15.1,2.4,23,5.7
		c0.4,0.2,2.5,1.5,4.1,2.4c5.3-1.6,11.7-3.2,12.4-3.2c0.6,0,1.1,0.1,1.7,0.1c-3.2-1.2-6.5-2.3-9.7-3.2c4.9,0.5,10,0.7,15.1,0.3
		c4.3-0.3,7.4-2.5,9.1-5.3c-0.5,4.2,1.2,8.6,5.2,10.7c18.5,9.8,39,19.1,59.8,22.2c5.3,0.5,10.5,0.8,15.8,1c1.3,0,2.4,0.1,3.5,0.1
		c1.7-0.2,3.5-0.5,5.2-0.9c-0.8,0.3-1.6,0.6-2.4,0.9c11.7-0.3,17.1-2.9,28.3-7.4c4.5-1.8,9.1-3.6,13.6-5.4c0.8-0.3,1.3-0.5,1.7-0.7
		c0.4-0.2,0.9-0.5,1.6-0.8c2.7-1.3,5.5-2.6,8.3-3.9c3.1-1.6,6-3.3,8.9-5.1c2.7-3.5,6.3-8.8,9-12c2.5-3,5.8-5.3,9.5-6.8
		c-2-0.8-4-1.1-6.1-0.7c0.1-0.6,0.1-1.2,0.2-1.8c1.4-17.7-11.1-32.8-25.4-41.7c-13.3-8.2-29.4-12.3-45-12.3
		c-15.7,0-31.5,4-45.2,11.6c-6.8,3.8-13.1,8.8-18.7,14.3c-4.8,4.8-9.2,10.1-16.2,11.2c-0.5,0.1-0.9,0.2-1.3,0.4
		c-2.3-1.7-5.3-2.5-8.8-1.6c-17.7,4.3-34.1-9.5-48-18.4c-14.8-9.5-30.5-15.5-48.1-17.3c-31.6-3.2-64.8,8.8-86.4,32.2
		c-9.5,10.2,5.8,25.6,15.3,15.3c6.8-7.4,12.3-7.4,21.3-11.8c1,5.1,8.3,2,13.4,2.6c10.8,1.4,21.7,4.4,31.6,8.9
		C207.2,343.9,216.7,350.2,228.1,352.1z M299.9,349.3c-1.1,0.8-1.9,1.9-2.6,3c0.1-0.9,0.1-1.8,0-2.6
		C298.1,349.5,299,349.4,299.9,349.3z"/>
	<g>
		<g>
			<path class="st2" d="M234.1,252c1-22.5,22.2-37.1,41.1-45.1c21.5-9.1,47.4-13.7,70.5-9.5c10.7,1.9,19.9,6.4,28.3,13.4
				c4,3.3,7.8,7.1,10.5,11.6c1.9,3.1,3.3,7,3.5,9.8c0.4,6.6-2.2,12-6.9,16.8c-4.8,4.9-11,8.5-17.5,10.3c-4.3,1.2-6.5,1.6-10.8,1.4
				c-3-0.1-5.6-0.8-8.2-2.3c-2-1.2-4-3.7-4.8-5.8c-1.5-4.2-1.6-8.3-0.9-13c1.1-7.7-10.6-11-11.7-3.2c-1.5,10.1-1,21.1,6.5,28.8
				c5.9,6.1,14.9,8.3,23.2,7.7c17.6-1.4,36.7-12.8,42-30.5c7.2-24-17.4-45.3-37.2-53.2c-24.8-9.8-55.9-5.7-80.6,2.5
				c-27.4,9.1-57.7,28.3-59.2,60.3C221.5,259.8,233.7,259.8,234.1,252L234.1,252z"/>
		</g>
	</g>
	<g>
		<g>
			<path class="st2" d="M390.3,255.2c13.8-1.9,29.4,2.3,42.3,7.5c13.7,5.5,27.9,14,36.6,26.2c8.7,12.1,9,26.1,1.4,38.9
				c-4.3,7.2-10.2,15.5-19,16.8c-8.6,1.3-18.1-1.2-25.4-5.7c-7.4-4.6-12.3-13-6.4-20.9c4.5-5.9,13.7-9.4,19.5-3.6
				c5.5,5.6,14.1-3,8.6-8.6c-17.1-17.2-47.5,2.5-42.5,25c4.9,21.9,38.1,31.8,56.7,23.1c10-4.7,18-16.9,22.3-26.8
				c3.9-8.9,5-18.7,2.7-28.2c-4.6-19-21.4-33-37.9-41.8c-18.6-10-41-16.7-62.3-13.8c-3.3,0.5-5,4.6-4.2,7.5
				C383.7,254.5,387,255.6,390.3,255.2L390.3,255.2z"/>
		</g>
	</g>
	<g>
		<g>
			<path class="st2" d="M114.1,356.7c4.7-54.6,57-104.6,113.7-93.7c16.6,3.2,31.6,11.3,44.2,22.6c5.8,5.2,14.4-3.4,8.6-8.6
				c-24.7-22.1-57-32.3-89.6-25c-30.2,6.7-56.5,27.1-72.4,53.3c-9.5,15.7-15,33.3-16.6,51.5C101.3,364.4,113.5,364.4,114.1,356.7
				L114.1,356.7z"/>
		</g>
	</g>
	<g>
		<g>
			<path class="st2" d="M113.5,359.7c9.1-12.1,21.5-22,37-23.8c14.1-1.6,28.3,2.7,41.3,7.6c14.1,5.4,27.7,12.1,41.8,17.5
				c12.6,4.8,26.5,9,40.1,7.6c17.6-1.7,31-12.4,40.8-26.7c4.4-6.5-6.1-12.6-10.5-6.1c-7.7,11.2-18.6,20-32.2,20.8
				c-13.5,0.8-26.8-4-39.2-9c-26.8-10.8-55-27.8-85-23.6c-18.9,2.7-33.5,14.6-44.6,29.5C98.3,359.8,108.8,365.9,113.5,359.7
				L113.5,359.7z"/>
		</g>
	</g>
	<g>
		<g>
			<path class="st2" d="M422.9,383.2c14.5-7,27.5-16.7,38.8-28.1c5.5-5.6-3.1-14.2-8.6-8.6c-10.6,10.7-22.7,19.6-36.3,26.2
				C409.7,376.1,415.9,386.6,422.9,383.2L422.9,383.2z"/>
		</g>
	</g>
	<g>
		<g>
			<path class="st2" d="M404.6,390.4c2.1-0.7,4.2-1.4,6.3-2.2c3-1.1,5.3-4.2,4.2-7.5c-0.9-2.9-4.3-5.4-7.5-4.2
				c-2.1,0.8-4.2,1.5-6.3,2.2c-3,1-5.3,4.3-4.2,7.5C398.1,389.2,401.4,391.4,404.6,390.4L404.6,390.4z"/>
		</g>
	</g>
	<g>
		<g>
			<path class="st2" d="M286.6,365.1c27.8,27.4,67.8,36.4,105.5,28.6c7.7-1.6,4.4-13.3-3.2-11.7c-33.4,7-69.1-1.2-93.7-25.5
				C289.6,351,281,359.6,286.6,365.1L286.6,365.1z"/>
		</g>
	</g>
</g>
</svg>
