<?xml version="1.0" standalone="no"?><!DOCTYPE svg PUBLIC "-//W3C//DTD SVG 1.1//EN" "http://www.w3.org/Graphics/SVG/1.1/DTD/svg11.dtd"><svg t="1641560821777" class="icon" viewBox="0 0 1024 1024" version="1.1" xmlns="http://www.w3.org/2000/svg" p-id="7000" xmlns:xlink="http://www.w3.org/1999/xlink" width="200" height="200"><defs><style type="text/css"></style></defs><path d="M512.8 420.8c-156.8 234.4-141.6 576.8-48 578.4 96.8 2.4-14.4-394.4 48-578.4zM480.8 395.2c-227.2 74.4-392 311.2-328.8 361.6 64.8 52 191.2-272 328.8-361.6zM487.2 376C290.4 288 24 332 31.2 399.2c7.2 68.8 307.2-49.6 456-23.2zM512.8 354.4c-89.6-169.6-300-300.8-331.2-256-32 46.4 241.6 152 331.2 256zM531.2 354.4C626.4 228 632 34.4 580.8 29.6c-52.8-4.8-7.2 223.2-49.6 324.8zM548 366.4c144.8 3.2 295.2-94.4 272-135.2-24-41.6-173.6 112-272 135.2zM561.6 399.2c160 119.2 420 160.8 431.2 109.6 11.2-52.8-299.2-48.8-431.2-109.6zM539.2 426.4c29.6 216 211.2 417.6 264.8 375.2 55.2-43.2-207.2-233.6-264.8-375.2z" fill="#E83518" p-id="7001"></path><path d="M919.2 622.4l16 32.8 36 4.8-25.6 25.6 5.6 36-32-16.8-32 16.8 6.4-36-26.4-25.6 36-4.8z" fill="#F4D31F" p-id="7002"></path><path d="M520 339.2l16 32.8 36 5.6-25.6 24.8 5.6 36-32-16.8-32 16.8 6.4-36-26.4-24.8 36-5.6zM239.2 792.8l14.4 30.4 34.4 4.8-24.8 24 5.6 33.6-29.6-16-30.4 16 5.6-33.6-24.8-24 34.4-4.8zM151.2 188h-32v-32c0-2.4-1.6-4-4-4s-4 1.6-4 4v32h-32c-2.4 0-4 1.6-4 4s1.6 4 4 4h32v32c0 2.4 1.6 4 4 4s4-1.6 4-4v-32h32c2.4 0 4-1.6 4-4s-1.6-4-4-4z" fill="#F5E328" p-id="7003"></path></svg>